<?xml version="1.0" standalone="no"?>
<!DOCTYPE svg PUBLIC "-//W3C//DTD SVG 20010904//EN"
 "http://www.w3.org/TR/2001/REC-SVG-20010904/DTD/svg10.dtd">
<svg version="1.0" xmlns="http://www.w3.org/2000/svg"
 width="372.000000pt" height="436.000000pt" viewBox="0 0 372.000000 436.000000"
 preserveAspectRatio="xMidYMid meet">
<g transform="translate(0.000000,436.000000) scale(0.100000,-0.100000)"
>
<path d="M1793 4345 c-29 -8 -70 -23 -90 -34 -70 -35 -307 -119 -453 -161
-279 -79 -606 -133 -885 -145 -77 -4 -160 -13 -185 -21 -62 -19 -113 -64 -144
-126 l-26 -52 0 -1141 0 -1141 69 -140 c261 -527 722 -971 1261 -1214 132 -60
343 -134 440 -154 83 -17 127 -10 310 49 551 179 1021 530 1372 1026 78 110
172 272 215 371 l33 76 0 1134 0 1134 -26 53 c-33 65 -99 116 -169 130 -27 6
-129 15 -226 21 -448 27 -835 120 -1304 313 -81 33 -130 39 -192 22z m197
-196 c128 -55 357 -133 515 -174 274 -72 499 -108 814 -129 181 -13 185 -13
208 -40 l23 -27 0 -1111 0 -1111 -56 -106 c-307 -579 -827 -1025 -1430 -1226
-200 -67 -204 -67 -335 -29 -631 182 -1190 647 -1499 1247 l-60 117 0 1111 0
1111 28 27 c27 27 32 28 172 35 163 8 401 36 565 67 252 47 591 149 790 237
117 52 147 52 265 1z"/>
<path d="M1637 3444 c-80 -19 -190 -72 -264 -127 -190 -141 -304 -404 -275
-637 27 -219 137 -398 316 -515 l76 -49 -58 -22 c-275 -103 -517 -324 -631
-575 -37 -83 -78 -214 -87 -277 -6 -46 -4 -53 19 -76 16 -16 37 -26 55 -26 51
0 70 26 97 134 71 278 248 499 501 625 365 181 797 112 1090 -175 63 -61 83
-74 114 -74 32 0 70 44 70 82 0 28 -12 45 -82 113 -117 114 -260 203 -408 253
l-50 17 76 50 c352 230 425 704 160 1037 -89 111 -245 209 -386 242 -81 19
-254 19 -333 0z"/>
<path d="M2709 1524 c-253 -252 -413 -405 -422 -402 -9 1 -97 98 -197 213
-100 116 -192 220 -206 233 -33 29 -78 29 -109 -3 -51 -50 -43 -63 178 -317
111 -128 217 -242 235 -254 43 -29 100 -38 153 -24 39 10 90 57 462 428 399
399 417 418 417 454 0 28 -6 42 -26 57 -56 44 -49 50 -485 -385z"/>
</g>
</svg>
